HIERARCHY
ROOT Hips
{
	OFFSET 55.310501 45.591206 43.872097
	CHANNELS 6 Xposition Yposition Zposition Zrotation Xrotation Yrotation
	JOINT Chest
	{
		OFFSET -0.153500 1.163101 7.852402
		CHANNELS 6 Xposition Yposition Zposition Zrotation Xrotation Yrotation
		JOINT Chest2
		{
			OFFSET 0.000000 0.000000 3.343300
			CHANNELS 6 Xposition Yposition Zposition Zrotation Xrotation Yrotation
			JOINT Neck
			{
				OFFSET 0.000000 0.000000 7.785500
				CHANNELS 6 Xposition Yposition Zposition Zrotation Xrotation Yrotation
				JOINT Head
				{
					OFFSET 0.000000 0.000000 2.173901
					CHANNELS 6 Xposition Yposition Zposition Zrotation Xrotation Yrotation
					End Site
					{
						OFFSET 0.000000 0.000000 10.528198
					}
				}
			}
			JOINT LeftCollar
			{
				OFFSET 2.676300 -1.652401 4.938301
				CHANNELS 6 Xposition Yposition Zposition Zrotation Xrotation Yrotation
				JOINT LeftShoulder
				{
					OFFSET 4.299000 0.000000 0.000000
					CHANNELS 6 Xposition Yposition Zposition Zrotation Xrotation Yrotation
					JOINT LeftElbow
					{
						OFFSET 0.000000 0.000000 -10.245102
						CHANNELS 6 Xposition Yposition Zposition Zrotation Xrotation Yrotation
						JOINT LeftWrist
						{
							OFFSET 0.000000 0.000000 -12.703300
							CHANNELS 6 Xposition Yposition Zposition Zrotation Xrotation Yrotation
							End Site
							{
								OFFSET 0.000000 0.000000 -2.173901
							}
						}
					}
				}
			}
			JOINT RightCollar
			{
				OFFSET -2.534599 -1.686401 5.195000
				CHANNELS 6 Xposition Yposition Zposition Zrotation Xrotation Yrotation
				JOINT RightShoulder
				{
					OFFSET -4.144100 0.000000 0.000000
					CHANNELS 6 Xposition Yposition Zposition Zrotation Xrotation Yrotation
					JOINT RightElbow
					{
						OFFSET 0.000000 0.000000 -10.116501
						CHANNELS 6 Xposition Yposition Zposition Zrotation Xrotation Yrotation
						JOINT RightWrist
						{
							OFFSET 0.000000 0.000000 -12.937801
							CHANNELS 6 Xposition Yposition Zposition Zrotation Xrotation Yrotation
							End Site
							{
								OFFSET 0.000000 0.000000 -2.173901
							}
						}
					}
				}
			}
		}
	}
	JOINT LeftHip
	{
		OFFSET 2.175598 0.064499 -2.662899
		CHANNELS 6 Xposition Yposition Zposition Zrotation Xrotation Yrotation
		JOINT LeftKnee
		{
			OFFSET 0.000000 -0.000004 -18.585800
			CHANNELS 6 Xposition Yposition Zposition Zrotation Xrotation Yrotation
			JOINT LeftAnkle
			{
				OFFSET 0.000000 0.000000 -18.979500
				CHANNELS 6 Xposition Yposition Zposition Zrotation Xrotation Yrotation
				End Site
				{
					OFFSET 0.000000 -9.264000 0.000000
				}
			}
		}
	}
	JOINT RightHip
	{
		OFFSET -2.092400 -0.058102 -2.581200
		CHANNELS 6 Xposition Yposition Zposition Zrotation Xrotation Yrotation
		JOINT RightKnee
		{
			OFFSET 0.000000 -0.000004 -18.665001
			CHANNELS 6 Xposition Yposition Zposition Zrotation Xrotation Yrotation
			JOINT RightAnkle
			{
				OFFSET 0.000000 0.000000 -18.566601
				CHANNELS 6 Xposition Yposition Zposition Zrotation Xrotation Yrotation
				End Site
				{
					OFFSET 0.000000 -8.497601 0.000000
				}
			}
		}
	}
}
MOTION
Frames: 6
Frame Time: 0.041667
48.575706 32.333305 43.310291 1072.620885 2.660296 14.128605 -0.153495 1.163106 7.852407 -20.677262 2.026547 -8.933568 0.000005 0.000003 3.343310 4.727672 -1.652362 0.136633 0.000002 0.000002 7.785506 46.689022 -14.797659 -15.142630 -0.000006 0.000002 2.173911 7.552442 -1.750793 6.994611 2.676305 -1.652400 4.938310 -10.437627 5.738660 -4.956066 4.299004 -0.000005 -0.000004 -39.192619 21.927071 -28.357441 -0.000009 0.000010 -10.245106 21.049902 664.098856 44.939465 -0.000005 -0.000005 -12.703299 1403.695016 -188.091293 545.122097 -2.534594 -1.686399 5.195011 1.954795 2.761730 -7.842448 -4.144094 0.000009 -0.000005 -16.263036 -9.860183 61.837562 -0.000011 -0.000004 -10.116498 -83.600477 -4.170230 -1.641065 0.000008 0.000003 -12.937801 -406.622116 -361.384954 5.926032 2.175606 0.064495 -2.662889 -268.865643 -55.262675 23.908114 -0.000003 -0.000001 -18.585804 116.517440 -237.474230 -147.189825 0.000003 -0.000005 -18.979511 400.731078 37.049948 -139.573044 -2.092396 -0.058103 -2.581193 368.308088 -2.380918 -8.366034 -0.000004 -0.000001 -18.665007 -1115.849316 15.875344 -12.072907 0.000014 -0.000016 -18.566601 749.078867 23.219221 14.919975
48.596596 32.316799 43.313992 1072.718584 2.721898 14.159103 -0.153503 1.163106 7.852401 -20.779479 1.998076 -8.974065 -0.000000 0.000001 3.343303 4.774270 -1.666254 0.137341 0.000002 0.000004 7.785501 46.660390 -14.870346 -15.208688 0.000002 0.000005 2.173903 7.475424 -1.778132 7.056625 2.676296 -1.652395 4.938303 -10.579954 5.857494 -4.977689 4.299002 0.000005 -0.000008 -39.049766 21.936416 -28.294912 -0.000002 0.000017 -10.245108 20.871407 663.904168 44.716473 0.000007 -0.000002 -12.703292 1403.763318 -188.058112 545.143735 -2.534593 -1.686402 5.195005 2.043246 2.875665 -7.844088 -4.144096 0.000010 0.000003 -16.262761 -9.813278 61.882839 -0.000006 -0.000010 -10.116496 -83.476974 -4.192795 -1.564484 -0.000001 0.000003 -12.937803 -406.842677 -361.509263 5.840901 2.175594 0.064498 -2.662897 -269.750234 -55.393777 23.312706 -0.000005 -0.000003 -18.585804 117.096039 -237.509829 -147.350963 -0.000006 -0.000000 -18.979515 400.633789 36.954619 -139.578413 -2.092398 -0.058108 -2.581198 368.198450 -2.393865 -8.375599 0.000000 0.000002 -18.665005 -1115.844835 15.881998 -12.047799 0.000008 -0.000003 -18.566601 749.079523 23.162684 14.892749
48.620098 32.295403 43.317093 1072.867318 2.769261 14.164291 -0.153505 1.163102 7.852406 -20.947374 2.006761 -8.956395 0.000007 0.000003 3.343303 4.830367 -1.684265 0.137995 -0.000006 0.000005 7.785498 46.625962 -14.982570 -15.276828 -0.000010 0.000005 2.173909 7.417487 -1.784003 7.139026 2.676292 -1.652395 4.938293 -10.676460 5.958338 -5.024973 4.299002 0.000003 0.000002 -38.919398 21.945401 -28.246901 -0.000002 0.000015 -10.245106 20.594738 663.658336 44.425459 -0.000015 -0.000004 -12.703304 1403.909758 -188.030231 545.140238 -2.534604 -1.686399 5.194992 1.912631 2.942752 -7.835596 -4.144102 0.000006 -0.000002 -16.038877 -9.705095 61.920767 0.000002 -0.000009 -10.116503 -83.217386 -4.210581 -1.474126 -0.000006 -0.000001 -12.937801 -407.172930 -361.713349 5.658135 2.175600 0.064492 -2.662889 -270.563710 -55.480817 22.788390 0.000000 -0.000008 -18.585796 117.537529 -237.556711 -147.446996 -0.000004 0.000004 -18.979511 400.542073 36.853580 -139.569206 -2.092396 -0.058105 -2.581199 368.043405 -2.381853 -8.365933 0.000003 0.000003 -18.664997 -1115.842868 15.901109 -12.007243 0.000017 -0.000015 -18.566601 749.073567 23.105152 14.856602
48.644108 32.269997 43.319691 1073.048619 2.814068 14.158956 -0.153501 1.163102 7.852407 -21.130534 2.023607 -8.937906 0.000004 0.000009 3.343299 4.871045 -1.704937 0.138053 0.000002 0.000012 7.785503 46.602579 -15.082362 -15.315002 -0.000004 0.000006 2.173910 7.364687 -1.814503 7.177673 2.676299 -1.652391 4.938308 -11.569659 6.425312 -5.111480 4.298998 0.000004 -0.000004 -37.945044 21.643213 -28.289341 -0.000007 0.000010 -10.245098 20.219535 663.356496 44.040892 -0.000002 -0.000004 -12.703303 1404.156191 -188.008484 545.092044 -2.534595 -1.686393 5.194999 2.047515 3.099540 -7.916619 -4.144095 0.000010 -0.000003 -16.051884 -9.711077 62.037147 0.000001 -0.000004 -10.116501 -82.972564 -4.201080 -1.388758 0.000011 0.000001 -12.937805 -407.485452 -361.937981 5.438546 2.175596 0.064490 -2.662896 -271.371585 -55.555768 22.274637 -0.000004 -0.000007 -18.585804 117.910075 -237.609987 -147.487635 0.000000 0.000002 -18.979519 400.449374 36.737737 -139.554767 -2.092396 -0.058105 -2.581194 367.856230 -2.379650 -8.353126 0.000010 -0.000004 -18.665005 -1115.846693 15.951721 -11.929735 0.000005 -0.000003 -18.566605 749.066682 23.034183 14.804787
48.673805 32.238499 43.321495 1073.274397 2.823069 14.087683 -0.153502 1.163098 7.852402 -21.366341 2.087232 -8.808907 -0.000001 0.000003 3.343302 4.925217 -1.736160 0.138051 -0.000006 -0.000001 7.785500 46.557561 -15.223356 -15.333790 -0.000001 0.000001 2.173910 7.359616 -1.824601 7.183107 2.676295 -1.652399 4.938299 -11.613761 6.537332 -5.176278 4.298998 0.000003 0.000006 -37.855005 21.659399 -28.271715 -0.000003 0.000008 -10.245102 19.641445 662.910840 43.461023 0.000008 -0.000004 -12.703293 1404.584034 -187.986791 545.002541 -2.534600 -1.686399 5.195006 2.158468 3.249902 -8.057601 -4.144108 0.000003 0.000004 -16.067016 -9.774463 62.167514 -0.000003 0.000004 -10.116502 -82.704268 -4.208206 -1.333413 0.000012 0.000001 -12.937804 -407.742349 -362.099774 5.263747 2.175598 0.064496 -2.662892 -271.711428 -55.486766 22.128285 -0.000010 -0.000010 -18.585798 117.845366 -237.685857 -147.372451 -0.000011 0.000003 -18.979521 400.363833 36.609527 -139.507188 -2.092397 -0.058101 -2.581193 367.637446 -2.307163 -8.263323 -0.000005 -0.000004 -18.665003 -1115.840136 16.002892 -11.883357 0.000010 -0.000001 -18.566603 749.054607 22.960702 14.761039
48.706299 32.202198 43.323391 1073.504438 2.820114 14.002620 -0.153501 1.163107 7.852398 -21.594246 2.168917 -8.641607 -0.000001 -0.000010 3.343292 4.964664 -1.767974 0.137100 0.000000 -0.000002 7.785503 46.487046 -15.397777 -15.325917 0.000005 0.000005 2.173911 7.403044 -1.813813 7.160573 2.676297 -1.652398 4.938300 -11.616709 6.659890 -5.240329 4.299002 -0.000002 -0.000010 -37.762087 21.680144 -28.311894 -0.000009 0.000002 -10.245115 18.757427 662.289566 42.616808 -0.000006 -0.000006 -12.703292 1405.267381 -187.971505 544.832934 -2.534595 -1.686402 5.195002 2.258982 3.396784 -8.274401 -4.144096 0.000005 0.000000 -16.003456 -9.772612 62.365890 0.000007 -0.000011 -10.116493 -82.513856 -4.218586 -1.273568 0.000001 -0.000003 -12.937800 -407.999028 -362.189550 5.137579 2.175589 0.064496 -2.662897 -272.092306 -55.405443 21.932953 0.000000 -0.000003 -18.585800 117.776995 -237.766699 -147.239057 -0.000008 0.000010 -18.979521 400.261106 36.476096 -139.422493 -2.092404 -0.058103 -2.581199 367.418552 -2.210590 -8.158436 0.000002 -0.000007 -18.665005 -1112.079380 15.508861 -12.469076 0.000008 -0.000013 -18.566605 745.504220 22.486069 14.459003
